<svg width="24" height="24" viewBox="0 0 24 24" fill="none" xmlns="http://www.w3.org/2000/svg">
<path fill-rule="evenodd" clip-rule="evenodd" d="M8.9605 0.0793596C8.85729 0.130439 8.43507 0.624206 8.02223 1.17671C7.60939 1.72922 7.22254 2.23122 7.16249 2.29223C7.09578 2.36005 6.53272 2.42835 5.71661 2.4676C4.98147 2.50298 4.27186 2.58414 4.13984 2.64808C3.84607 2.79016 3.73779 3.13305 3.51101 4.63923L3.34269 5.75749L2.21517 6.42786C1.59506 6.79648 0.986499 7.2001 0.862741 7.32487C0.58764 7.60221 0.608751 7.76254 1.1354 9.40001L1.50518 10.5496L0.752588 11.8003C0.338622 12.4881 0 13.1375 0 13.2433C0 13.3613 0.41359 13.859 1.07066 14.5321L2.14142 15.6287L2.02817 17.0307C1.86754 19.0192 1.70456 18.8411 4.39824 19.621L4.99649 19.7942L5.54566 21.0694C5.84769 21.7708 6.18481 22.4191 6.29477 22.5102C6.55908 22.7289 6.79619 22.7199 8.16297 22.4392C8.79639 22.3092 9.3617 22.203 9.41913 22.2031C9.47645 22.2034 10.0208 22.6078 10.6287 23.1018C11.4633 23.78 11.8016 24 12.0099 24C12.2182 24 12.5564 23.78 13.391 23.1018C13.9989 22.6078 14.5433 22.2034 14.6006 22.2031C14.6581 22.203 15.2234 22.3092 15.8568 22.4392C17.2236 22.7199 17.4607 22.7289 17.725 22.5102C17.835 22.4191 18.1721 21.7708 18.4741 21.0694L19.0233 19.7942L19.6215 19.621C22.3117 18.8421 22.1464 19.0225 21.9933 17.0335L21.8851 15.6287L22.9647 14.5197C23.953 13.5043 24.0395 13.387 23.9889 13.1317C23.9584 12.9784 23.6136 12.3386 23.2226 11.7098L22.5117 10.5668L22.9406 9.22388C23.3849 7.83254 23.4108 7.50838 23.0996 7.22886C23.0122 7.15035 22.4363 6.78948 21.8198 6.42701L20.6988 5.76789L20.4882 4.45762C20.3723 3.73702 20.2335 3.04972 20.1794 2.93025C20.0344 2.60911 19.7403 2.53675 18.2994 2.46741C17.5819 2.43289 16.9585 2.37916 16.914 2.34794C16.8695 2.31682 16.5024 1.8537 16.0982 1.31898C15.1982 0.128074 14.9845 -0.0558114 14.6002 0.0292262C14.444 0.0638467 13.7985 0.338824 13.1656 0.640476L12.0148 1.18873L10.724 0.581261C9.39314 -0.045028 9.27829 -0.0777566 8.9605 0.0793596ZM16.4281 7.62066C17.0149 7.9959 17.5457 8.48115 17.5457 8.64243C17.5457 8.71716 17.464 8.93983 17.364 9.13724C17.0099 9.83703 12.0985 17.1799 11.8558 17.3723C11.5167 17.6412 11.1662 17.6172 10.7338 17.2956C10.5326 17.1458 9.49175 16.1307 8.42099 15.0397C6.83381 13.4226 6.47408 13.0078 6.47408 12.7952C6.47408 12.4327 7.71166 11.1356 8.0575 11.1356C8.23803 11.1356 8.61606 11.4559 9.62057 12.4599C10.3492 13.1882 10.9945 13.7841 11.0544 13.7841C11.1145 13.7841 11.8461 12.752 12.6803 11.4903C13.5145 10.2286 14.488 8.78139 14.8435 8.27419C15.5852 7.21609 15.7129 7.1634 16.4281 7.62066Z" fill="#8F00FF"/>
</svg>
