<svg width="17" height="20" viewBox="0 0 17 20" fill="none" xmlns="http://www.w3.org/2000/svg">
<path fill-rule="evenodd" clip-rule="evenodd" d="M1.60452 0.613552C1.27127 0.788011 1.19734 1.23125 0.898588 4.84795C0.795769 6.09322 0.692799 7.21192 0.6699 7.33395C0.646925 7.45598 0.544788 8.5265 0.442804 9.71284C0.340895 10.8992 0.188259 12.6373 0.103563 13.5751C-0.065451 15.448 -0.0577927 15.5158 0.355908 15.8116C0.546153 15.9475 0.694619 15.967 1.7018 15.9879C2.50661 16.0047 2.83379 16.0364 2.83341 16.0976C2.83319 16.145 2.78246 16.776 2.72074 17.4999C2.5907 19.025 2.5791 19.5325 2.67517 19.4984C2.71293 19.485 3.09683 19.1575 3.5282 18.7706C3.95957 18.3837 4.84141 17.6025 5.48782 17.0345L6.66311 16.0018L9.05159 15.9962C10.3653 15.9932 11.5008 15.9675 11.5751 15.9393C11.6494 15.911 12.4683 15.1795 13.3949 14.3137C14.3215 13.448 15.3305 12.5111 15.6371 12.2316C16.5353 11.4129 16.4617 11.6336 16.6768 9.11298C16.7807 7.89462 16.9043 6.50085 16.9513 6.01578C16.9983 5.53065 17.0141 5.05355 16.9863 4.95558C16.9586 4.85753 16.6264 4.43191 16.2481 4.00965C15.8698 3.5874 15.401 3.06358 15.2062 2.84562C15.0115 2.62765 14.7669 2.35829 14.6626 2.247C14.5584 2.13579 14.3034 1.85348 14.0959 1.61973C13.8885 1.38589 13.5607 1.03829 13.3675 0.847309L13.0162 0.5L7.41324 0.502925C2.62641 0.505411 1.78036 0.52157 1.60452 0.613552ZM11.4355 3.46975C11.5025 3.49446 11.9545 3.96337 12.4401 4.51168C12.9256 5.05992 13.4046 5.58585 13.5046 5.68025C13.8368 5.99414 13.8484 6.12012 13.7186 8.03113C13.6518 9.01639 13.5622 9.94703 13.5194 10.0992C13.4606 10.309 13.2396 10.5652 12.6049 11.1594C11.0128 12.6498 10.7566 12.8722 10.5137 12.974C10.3177 13.0561 9.65615 13.0763 7.1546 13.0763C3.86767 13.0763 3.8086 13.0708 3.50795 12.7364C3.30937 12.5157 3.30489 12.3723 3.44653 10.7696C3.52099 9.927 3.68349 8.08392 3.80761 6.67384C4.04434 3.98406 4.11561 3.62754 4.44189 3.50134C4.6335 3.42712 11.2399 3.39729 11.4355 3.46975ZM7.80913 5.27408C7.6944 5.35495 7.65384 5.63725 7.52819 7.22998C7.44736 8.2537 7.39944 9.1654 7.42174 9.25585C7.46048 9.41342 7.49544 9.42037 8.2524 9.42037C8.77961 9.42037 9.06115 9.39156 9.09815 9.33372C9.12871 9.28612 9.19725 8.78432 9.25048 8.21868C9.30371 7.65304 9.38917 6.78279 9.44035 6.28486C9.52853 5.42755 9.52596 5.37403 9.39182 5.27949C9.20294 5.14627 7.99619 5.14217 7.80913 5.27408ZM7.32794 10.0212C7.20131 10.1733 7.12503 11.3801 7.23407 11.5069C7.36487 11.6588 8.76543 11.6605 8.896 11.5088C8.95014 11.4459 8.99192 11.1155 9.00003 10.6863L9.01368 9.96875L8.20986 9.94813C7.62563 9.93307 7.38473 9.9531 7.32794 10.0212Z" fill="white"/>
</svg>
