<svg width="21" height="18" viewBox="0 0 21 18" fill="none" xmlns="http://www.w3.org/2000/svg">
<path d="M9.6259 0.605833C9.90673 -0.201945 11.0933 -0.201944 11.3741 0.605834L13.1182 5.62259C13.244 5.98448 13.596 6.22843 13.9923 6.22843H19.5765C20.4761 6.22843 20.8429 7.34221 20.1077 7.84142L15.6378 10.8766C15.3051 11.1025 15.1657 11.5119 15.2949 11.8837L17.0134 16.8266C17.2961 17.6397 16.3358 18.3279 15.6081 17.8338L11.0312 14.726C10.7127 14.5097 10.2873 14.5097 9.96878 14.726L5.39194 17.8338C4.66419 18.3279 3.70393 17.6397 3.98662 16.8266L5.70505 11.8837C5.83431 11.5119 5.69493 11.1025 5.36217 10.8766L0.89231 7.84142C0.157116 7.34221 0.523923 6.22843 1.42353 6.22843H7.00768C7.40401 6.22843 7.75597 5.98448 7.88178 5.62259L9.6259 0.605833Z" fill="white"/>
</svg>
