<svg width="40" height="40" viewBox="0 0 40 40" fill="none" xmlns="http://www.w3.org/2000/svg">
<path fill-rule="evenodd" clip-rule="evenodd" d="M19.5621 0.124048C18.9982 0.369425 18.972 0.521663 18.972 3.54062C18.972 6.56482 18.9899 6.66768 19.5661 6.94121C19.9659 7.13104 20.0341 7.13104 20.4339 6.94121C21.0101 6.66768 21.028 6.56482 21.028 3.54062C21.028 0.516426 21.0101 0.413562 20.4339 0.140038C20.0485 -0.0429659 19.95 -0.044836 19.5621 0.124048ZM7.3271 7.31853C7.06402 7.58177 7.00935 7.70586 7.00935 8.0397C7.00935 8.43376 7.03944 8.47304 8.34467 9.77903L9.68 11.1151H10.1276C10.4977 11.1151 10.6224 11.0678 10.8483 10.8418C11.0742 10.6158 11.1215 10.4909 11.1215 10.1206V9.6728L9.78617 8.33669C8.48094 7.0307 8.44168 7.00059 8.04785 7.00059C7.71421 7.00059 7.59019 7.05529 7.3271 7.31853ZM30.2138 8.33669L28.8785 9.6728V10.1206C28.8785 10.4909 28.9258 10.6158 29.1517 10.8418C29.3776 11.0678 29.5023 11.1151 29.8724 11.1151H30.32L31.6553 9.77903C32.9606 8.47304 32.9907 8.43376 32.9907 8.0397C32.9907 7.70586 32.936 7.58177 32.6729 7.31853C32.4098 7.05529 32.2858 7.00059 31.9522 7.00059C31.5583 7.00059 31.5191 7.0307 30.2138 8.33669ZM18.2349 11.1606C14.8315 11.9306 12.36 14.2166 11.3371 17.5406C11.1032 18.3008 11.0842 18.4849 11.0842 19.9988C11.0842 21.519 11.1025 21.6947 11.3412 22.4711C12.2673 25.4835 14.5185 27.7361 17.5292 28.6627C18.3051 28.9015 18.4807 28.9198 20 28.9198C21.5193 28.9198 21.6949 28.9015 22.4708 28.6627C25.4719 27.7391 27.7357 25.4739 28.6588 22.4711C28.8975 21.6947 28.9158 21.519 28.9158 19.9988C28.9158 18.4787 28.8975 18.303 28.6588 17.5265C27.7319 14.5114 25.4564 12.2371 22.4708 11.3415C21.7622 11.129 21.4229 11.086 20.2336 11.0583C19.2437 11.0352 18.6564 11.0652 18.2349 11.1606ZM0.549626 19.1107C0.319252 19.2361 0 19.7519 0 19.9988C0 20.2561 0.324112 20.7648 0.568691 20.8913C0.955234 21.0913 6.14757 21.0913 6.53411 20.8913C6.77869 20.7648 7.1028 20.2561 7.1028 19.9988C7.1028 19.7416 6.77869 19.2329 6.53411 19.1063C6.1529 18.9091 0.913365 18.913 0.549626 19.1107ZM33.4468 19.1107C33.2164 19.2361 32.8972 19.7519 32.8972 19.9988C32.8972 20.2561 33.2213 20.7648 33.4659 20.8913C33.8524 21.0913 39.0448 21.0913 39.4313 20.8913C39.6759 20.7648 40 20.2561 40 19.9988C40 19.7416 39.6759 19.2329 39.4313 19.1063C39.0501 18.9091 33.8106 18.913 33.4468 19.1107ZM8.34467 30.2186C7.03944 31.5246 7.00935 31.5639 7.00935 31.958C7.00935 32.2918 7.06402 32.4159 7.3271 32.6791C7.59019 32.9424 7.71421 32.9971 8.04785 32.9971C8.44168 32.9971 8.48094 32.967 9.78617 31.661L11.1215 30.3249V29.877C11.1215 29.5067 11.0742 29.3819 10.8483 29.1559C10.6224 28.9298 10.4977 28.8825 10.1276 28.8825H9.68L8.34467 30.2186ZM29.1517 29.1559C28.9258 29.3819 28.8785 29.5067 28.8785 29.877V30.3249L30.2138 31.661C31.5191 32.967 31.5583 32.9971 31.9522 32.9971C32.2858 32.9971 32.4098 32.9424 32.6729 32.6791C32.936 32.4159 32.9907 32.2918 32.9907 31.958C32.9907 31.5639 32.9606 31.5246 31.6553 30.2186L30.32 28.8825H29.8724C29.5023 28.8825 29.3776 28.9298 29.1517 29.1559ZM19.5621 33.0405C18.9982 33.2858 18.972 33.4381 18.972 36.457C18.972 39.4812 18.9899 39.5841 19.5661 39.8576C19.9659 40.0475 20.0341 40.0475 20.4339 39.8576C21.0101 39.5841 21.028 39.4812 21.028 36.457C21.028 33.4328 21.0101 33.33 20.4339 33.0565C20.0485 32.8735 19.95 32.8716 19.5621 33.0405Z" fill="#8A8A8A"/>
</svg>
