<svg width="22" height="22" viewBox="0 0 22 22" fill="none" xmlns="http://www.w3.org/2000/svg">
<g clip-path="url(#clip0_6_4)">
<path d="M0 11C0 8.08262 1.15892 5.28473 3.22182 3.22183C5.28472 1.15893 8.08262 0 11 0C13.9174 0 16.7153 1.15893 18.7782 3.22183C20.8411 5.28473 22 8.08262 22 11C22 13.9174 20.8411 16.7153 18.7782 18.7782C16.7153 20.8411 13.9174 22 11 22C8.08262 22 5.28472 20.8411 3.22182 18.7782C1.15892 16.7153 0 13.9174 0 11ZM10.3555 5.80078C9.95156 5.39688 9.29844 5.39688 8.89883 5.80078C8.49922 6.20469 8.49492 6.85781 8.89883 7.25742L12.6371 10.9957L8.89883 14.734C8.49492 15.1379 8.49492 15.791 8.89883 16.1906C9.30273 16.5902 9.95586 16.5945 10.3555 16.1906L14.8242 11.7305C15.2281 11.3266 15.2281 10.6734 14.8242 10.2738L10.3555 5.80078Z" fill="currentColor"/>
</g>
<defs>
<clipPath id="clip0_6_4">
<rect width="22" height="22" fill="white" transform="matrix(-1 0 0 1 22 0)"/>
</clipPath>
</defs>
</svg>
