<svg width="22" height="22" viewBox="0 0 22 22" fill="none" xmlns="http://www.w3.org/2000/svg">
<g clip-path="url(#clip0_6_2)">
<path d="M22 11C22 8.08262 20.8411 5.28473 18.7782 3.22183C16.7153 1.15893 13.9174 0 11 0C8.08262 0 5.28473 1.15893 3.22183 3.22183C1.15893 5.28473 0 8.08262 0 11C0 13.9174 1.15893 16.7153 3.22183 18.7782C5.28473 20.8411 8.08262 22 11 22C13.9174 22 16.7153 20.8411 18.7782 18.7782C20.8411 16.7153 22 13.9174 22 11ZM11.6445 5.80078C12.0484 5.39688 12.7016 5.39688 13.1012 5.80078C13.5008 6.20469 13.5051 6.85781 13.1012 7.25742L9.36289 10.9957L13.1012 14.734C13.5051 15.1379 13.5051 15.791 13.1012 16.1906C12.6973 16.5902 12.0441 16.5945 11.6445 16.1906L7.17578 11.7305C6.77188 11.3266 6.77188 10.6734 7.17578 10.2738L11.6445 5.80078Z" fill="currentColor"/>
</g>
<defs>
<clipPath id="clip0_6_2">
<rect width="22" height="22" fill="white"/>
</clipPath>
</defs>
</svg>
