<svg width="27" height="27" viewBox="0 0 27 27" fill="none" xmlns="http://www.w3.org/2000/svg">
<path fill-rule="evenodd" clip-rule="evenodd" d="M0.54218 26.4578C-0.180726 25.7349 -0.180727 24.5629 0.542179 23.8399L23.8399 0.542204C24.5629 -0.180702 25.7349 -0.180702 26.4578 0.542204C27.1807 1.26511 27.1807 2.43717 26.4578 3.16008L3.16005 26.4578C2.43715 27.1807 1.26509 27.1807 0.54218 26.4578Z" fill="currentColor"/>
<path fill-rule="evenodd" clip-rule="evenodd" d="M0.54218 0.54218C1.26509 -0.180726 2.43715 -0.180727 3.16005 0.542179L26.4578 23.8399C27.1807 24.5628 27.1807 25.7349 26.4578 26.4578C25.7349 27.1807 24.5629 27.1807 23.8399 26.4578L0.54218 3.16005C-0.180726 2.43715 -0.180726 1.26509 0.54218 0.54218Z" fill="currentColor" />
</svg>
