<svg width="20" height="20" viewBox="0 0 20 20" fill="none" xmlns="http://www.w3.org/2000/svg">
<path d="M12.9282 0.095428C12.4735 0.291483 11.851 0.686643 11.5982 0.939669C11.4205 1.11742 11.3584 1.34402 11.4217 1.58316C11.4445 1.66919 11.4626 1.90673 11.462 2.11103C11.4611 2.43632 11.448 2.50733 11.3568 2.68219C11.1393 3.09893 10.8582 3.31571 10.3807 3.43517C10.0272 3.52354 9.86104 3.61472 9.76509 3.77285C9.54172 4.14095 9.50812 5.46372 9.71125 5.89211C9.79552 6.06991 10.0003 6.19879 10.291 6.25701C10.7779 6.35453 11.1023 6.59641 11.3099 7.01671C11.4345 7.26919 11.4525 7.34157 11.4529 7.59201C11.4531 7.75726 11.4266 7.953 11.3903 8.05447C11.258 8.42499 11.332 8.69718 11.6337 8.94864C12.0683 9.31103 12.8907 9.78142 13.1866 9.83699C13.4263 9.88199 13.6002 9.79976 13.8377 9.52902C14.1383 9.18634 14.3817 9.06063 14.7836 9.04025C15.2381 9.01726 15.482 9.11701 15.8221 9.46482C16.1268 9.77646 16.3037 9.85236 16.547 9.77564C16.7932 9.69802 17.3842 9.35803 17.7483 9.08456C18.2387 8.71626 18.3202 8.50992 18.1816 7.98795C17.9886 7.26098 18.4748 6.50022 19.2477 6.3198C19.5417 6.25114 19.7224 6.14486 19.8161 5.9856C19.9874 5.69449 20.0503 4.81334 19.9429 4.21039C19.8612 3.75181 19.7132 3.58899 19.2822 3.48354C18.7128 3.34422 18.3354 2.9532 18.2021 2.36457C18.1662 2.20582 18.1706 2.10259 18.2256 1.80788C18.3145 1.33233 18.2809 1.21275 17.9813 0.93877C17.6894 0.671824 17.3643 0.454028 16.9188 0.226966C16.301 -0.0878799 16.1246 -0.0797468 15.7707 0.279948C15.4483 0.607619 15.1916 0.722851 14.7841 0.722851C14.3876 0.722851 14.1237 0.608557 13.8452 0.316195C13.7384 0.204052 13.6036 0.086943 13.5455 0.0559355C13.394 -0.0250438 13.1752 -0.0110845 12.9282 0.095428ZM15.3232 3.28451C16.1179 3.53015 16.6389 4.39601 16.4876 5.21961C16.2448 6.54198 14.6187 7.10524 13.6429 6.20504C13.2597 5.85156 13.0802 5.4548 13.0731 4.94589C13.0676 4.55316 13.1501 4.26975 13.3625 3.95143C13.7795 3.32639 14.579 3.05444 15.3232 3.28451ZM4.28588 7.87354C3.80531 8.04571 3.0012 8.5247 2.60221 8.87646C2.26695 9.17207 2.18337 9.48109 2.31688 9.9311C2.48363 10.493 2.32544 11.1112 1.89961 11.5618C1.63525 11.8415 1.36297 11.9901 0.949098 12.0806C0.539209 12.1703 0.33069 12.302 0.203984 12.5515C-0.0487627 13.0491 -0.0725957 14.659 0.16593 15.1206C0.23571 15.2557 0.434461 15.4351 0.572576 15.4876C0.623563 15.507 0.785002 15.5479 0.93136 15.5784C1.58306 15.7144 2.07312 16.1518 2.26292 16.7668C2.36837 17.1084 2.36161 17.432 2.24073 17.8327C2.13247 18.1917 2.13692 18.3275 2.26534 18.5794C2.40776 18.8588 3.19897 19.4341 3.94202 19.7987C4.3094 19.9789 4.3791 20 4.60907 20C4.91222 20 5.04838 19.9236 5.28089 19.623C5.47686 19.3697 5.74356 19.1796 6.04624 19.0775C6.41651 18.9526 6.88829 18.9814 7.22988 19.1497C7.45071 19.2585 7.88814 19.6329 7.88814 19.7131C7.88814 19.7293 7.97085 19.791 8.07193 19.8503C8.35378 20.0156 8.56 19.9973 9.02118 19.7662C9.75528 19.3982 10.4995 18.854 10.6604 18.5675C10.7769 18.3602 10.7847 18.102 10.6854 17.7516C10.4225 16.8239 11.0343 15.8478 12.0101 15.6384C12.7084 15.4885 12.8767 15.1913 12.9171 14.037C12.9572 12.8925 12.7552 12.3326 12.2525 12.1956C11.5724 12.0103 11.2589 11.8238 11.0036 11.4529C10.7023 11.0151 10.6054 10.5498 10.7168 10.0755C10.8599 9.46607 10.7772 9.23338 10.2758 8.83462C9.60021 8.29748 8.6631 7.805 8.31791 7.80574C8.08384 7.80621 7.92643 7.89517 7.66333 8.1756C7.50978 8.33928 7.35658 8.45248 7.15064 8.55434C6.87027 8.69303 6.8389 8.69964 6.46222 8.69964C6.08445 8.69964 6.05479 8.69331 5.76888 8.55196C5.55829 8.44783 5.41474 8.34229 5.28237 8.19425C4.93316 7.80363 4.69506 7.72699 4.28588 7.87354ZM16.4547 10.4374C16.2379 10.4727 16.1201 10.5895 16.0177 10.8705C15.8546 11.318 15.3986 11.5738 14.9689 11.4587C14.8672 11.4315 14.6984 11.4004 14.5937 11.3896C14.4033 11.3699 14.4031 11.37 14.1801 11.6046C13.9277 11.8701 13.6315 12.4012 13.6315 12.5884C13.6315 12.7451 13.718 12.913 13.8399 12.993C13.9872 13.0895 14.1395 13.4309 14.139 13.6634C14.1386 13.9168 14.004 14.205 13.7955 14.3991C13.6017 14.5796 13.5691 14.7078 13.6534 14.9593C13.7531 15.2565 14.0487 15.8079 14.181 15.9434C14.3244 16.0901 14.4155 16.1097 14.6473 16.0433C15.0323 15.933 15.3582 16.0051 15.5927 16.2524C15.7166 16.3831 15.8195 16.612 15.8195 16.7572C15.8195 16.8215 15.8678 16.9085 15.9483 16.9891C16.0599 17.1008 16.1133 17.122 16.3457 17.1469C16.4933 17.1627 16.7621 17.1643 16.943 17.1503C17.4217 17.1135 17.5411 17.0374 17.6368 16.7076C17.7104 16.4542 17.9562 16.1843 18.181 16.1101C18.3212 16.0638 18.4103 16.0663 19.0174 16.1334L19.2264 16.1566L19.4505 15.926C19.6975 15.6718 20 15.1231 20 14.9292C20 14.7859 19.9494 14.6884 19.7664 14.4792C19.4534 14.1214 19.4519 13.6214 19.763 13.2802C19.9516 13.0733 20.0001 12.9784 19.9995 12.8177C19.9985 12.5444 19.5206 11.6439 19.3194 11.5362C19.2614 11.5051 19.1686 11.4954 19.0756 11.5106C18.6102 11.5869 18.5424 11.5831 18.3202 11.4689C18.0647 11.3375 17.9055 11.1275 17.8555 10.8553C17.8071 10.593 17.691 10.4868 17.4002 10.4392C17.1417 10.3968 16.7086 10.396 16.4547 10.4374ZM6.97154 11.8285C7.73416 12.0228 8.33893 12.6207 8.53335 13.3723C8.62235 13.7164 8.59809 14.319 8.4824 14.6371C8.09603 15.6998 6.91016 16.2939 5.83694 15.9625C5.16856 15.7561 4.62106 15.2052 4.41481 14.5314C4.31495 14.2054 4.30522 13.6899 4.39254 13.3544C4.58176 12.6273 5.21681 12.002 5.94524 11.8253C6.22917 11.7564 6.69461 11.7579 6.97154 11.8285ZM17.2509 12.7436C17.9524 13.0624 18.1477 13.9677 17.6376 14.5355C17.2988 14.9126 16.7587 15.022 16.3129 14.8037C15.742 14.5242 15.5122 13.8373 15.8006 13.2729C15.9255 13.0284 16.191 12.7897 16.42 12.7158C16.6323 12.6474 17.0715 12.6621 17.2509 12.7436Z"  fill="currentColor"/>
</svg>
