<svg width="55" height="56" viewBox="0 0 55 56" fill="none" xmlns="http://www.w3.org/2000/svg">
<path fill-rule="evenodd" clip-rule="evenodd" d="M49.1396 0.633641C48.9624 0.728006 47.6264 1.99473 46.1707 3.44868L43.524 6.09198L40.0421 5.57684C37.8506 5.25247 36.4439 5.09018 36.246 5.13887C36.0281 5.19239 34.8933 6.25255 32.547 8.59448L29.1623 11.9729L28.8329 11.6432C28.6517 11.4618 28.3386 11.2796 28.137 11.2383C27.3466 11.0763 27.2259 11.1504 25.4802 12.869C24.567 13.7679 23.7551 14.6615 23.6697 14.8617C23.5678 15.1005 23.539 15.3762 23.5856 15.6678C23.6519 16.0824 24.1609 16.6158 31.5121 23.9736C38.8634 31.3314 39.3963 31.8408 39.8106 31.9071C40.1019 31.9538 40.3774 31.925 40.616 31.823C40.816 31.7375 41.7088 30.9249 42.6069 30.0109C44.324 28.2637 44.3979 28.1429 44.2361 27.3517C44.1949 27.15 44.0129 26.8366 43.8316 26.6553L43.5022 26.3255L46.8776 22.9378C49.2175 20.5895 50.2767 19.4536 50.3302 19.2356C50.3787 19.0375 50.2168 17.6306 49.8931 15.4393L49.3789 11.9577L52.1222 9.19785C55.034 6.26856 55.1223 6.14797 54.945 5.34007C54.8983 5.12758 54.1806 4.33494 52.6401 2.79436C50.5025 0.656641 50.3822 0.555183 49.9324 0.50972C49.6266 0.478766 49.3489 0.522187 49.1396 0.633641ZM22.8841 21.8483C22.2603 22.0511 21.8718 22.377 19.9383 24.3201L17.9047 26.3639L16.7551 25.2523C15.4791 24.0183 15.1056 23.8446 14.3884 24.1513C14.1883 24.2367 13.2956 25.0493 12.3974 25.9633C10.6804 27.7106 10.6064 27.8314 10.7682 28.6225C10.8095 28.8243 10.9915 29.1377 11.1727 29.319L11.5022 29.6487L8.12674 33.0364C5.78689 35.3848 4.72767 36.5206 4.6742 36.7387C4.62566 36.9368 4.78759 38.3436 5.11124 40.535L5.62549 44.0166L2.8821 46.7764C-0.03052 49.7065 -0.131137 49.8443 0.0603249 50.6372C0.106284 50.8271 0.929473 51.7343 2.35303 53.1637C4.06696 54.8845 4.65219 55.4084 4.91581 55.458C5.7027 55.6056 5.82684 55.5134 8.72958 52.6261L11.4869 49.8832L14.9655 50.3979C17.1549 50.7219 18.5605 50.884 18.7584 50.8354C18.9763 50.7819 20.1111 49.7217 22.4574 47.3798L25.8421 44.0013L26.1715 44.3311C26.3527 44.5125 26.6658 44.6947 26.8673 44.7359C27.6578 44.8979 27.7785 44.8239 29.5242 43.1053C30.4373 42.2064 31.2493 41.3128 31.3346 41.1126C31.641 40.3947 31.4675 40.0209 30.2346 38.7438L29.124 37.5931L31.1662 35.5577C32.2894 34.4381 33.3111 33.3287 33.4366 33.0923C34.1504 31.7481 33.2349 30.031 31.7078 29.85C30.6782 29.728 30.3831 29.9213 28.0094 32.2725L25.8859 34.3758L23.5025 31.9903L21.1192 29.6049L23.2206 27.4794C24.9088 25.7721 25.36 25.2533 25.5143 24.8427C25.9004 23.8154 25.5059 22.6851 24.5697 22.136C24.0616 21.8379 23.3106 21.7098 22.8841 21.8483Z" fill="#FF6838"/>
</svg>
