<svg width="32" height="32" viewBox="0 0 32 32" xmlns="http://www.w3.org/2000/svg">
<path d="M4.8 8.22H8.22V5.42C8.22 4.51296 8.58032 3.64307 9.22169 3.00169C9.86307 2.36032 10.733 2 11.64 2H26.58C27.487 2 28.3569 2.36032 28.9983 3.00169C29.6397 3.64307 30 4.51296 30 5.42V20.36C29.9974 21.2662 29.6362 22.1346 28.9954 22.7754C28.3546 23.4162 27.4862 23.7774 26.58 23.78H23.78V27.2C23.7774 27.9384 23.4843 28.646 22.9641 29.17C22.4439 29.694 21.7383 29.9921 21 30H4.8C4.0582 29.9974 3.34754 29.7015 2.82301 29.177C2.29848 28.6525 2.00264 27.9418 2 27.2V11C2.00788 10.2617 2.30604 9.55613 2.83 9.0359C3.35397 8.51568 4.06164 8.22259 4.8 8.22ZM26.58 21.91C26.9911 21.91 27.3853 21.7467 27.676 21.456C27.9667 21.1653 28.13 20.7711 28.13 20.36V5.42C28.1313 5.21608 28.0921 5.01393 28.0147 4.82527C27.9373 4.63662 27.8232 4.46522 27.679 4.32102C27.5348 4.17683 27.3634 4.06271 27.1747 3.98528C26.9861 3.90786 26.7839 3.86867 26.58 3.87H11.64C11.2289 3.87 10.8347 4.0333 10.544 4.32398C10.2533 4.61467 10.09 5.00891 10.09 5.42V8.22H21C21.7349 8.2278 22.4375 8.5232 22.9571 9.04287C23.4768 9.56254 23.7722 10.2651 23.78 11V21.91H26.58ZM3.87 27.2C3.87 27.4467 3.96798 27.6832 4.14239 27.8576C4.3168 28.032 4.55335 28.13 4.8 28.13H21C21.2467 28.13 21.4832 28.032 21.6576 27.8576C21.832 27.6832 21.93 27.4467 21.93 27.2V11C21.93 10.7533 21.832 10.5168 21.6576 10.3424C21.4832 10.168 21.2467 10.07 21 10.07H4.8C4.55335 10.07 4.3168 10.168 4.14239 10.3424C3.96798 10.5168 3.87 10.7533 3.87 11V27.2Z" 
fill="current"  stroke="current"/>
</svg>
