<svg width="20" height="18" viewBox="0 0 20 18" fill="none" xmlns="http://www.w3.org/2000/svg">
<path d="M14.1818 5.40423V8.22498C14.1818 9.45228 13.2864 10.4472 12.1818 10.4472H8.79424C3.58764 10.4472 3.39358 10.4517 3.01636 10.5818C2.8017 10.6559 2.50564 10.8137 2.35848 10.9323C2.11727 11.127 0.472606 12.6384 0.136364 12.9744C0.0837791 13.027 0 12.9855 0 12.9069V6.73598V2.58348C0 1.35618 0.895431 0.361259 2 0.361259H7.09091H12.1818C13.2864 0.361259 14.1818 1.35618 14.1818 2.58348V5.40423Z" fill="currentColor"/>
<path d="M20 11.2676V17.2259C20 17.3911 19.8273 17.4822 19.7121 17.3778C19.5538 17.2343 19.0219 16.7439 18.5303 16.288C18.0386 15.8321 17.5281 15.3974 17.3958 15.322C16.7961 14.9803 16.837 14.9825 11.1388 14.9825H7.09516C6.38991 14.9825 5.81818 14.3472 5.81818 13.5636C5.81818 12.779 6.38903 12.1421 7.09515 12.1388L9.98485 12.1252C14.1428 12.1057 14.1522 12.1053 14.4848 11.9538C15.1582 11.6471 15.7436 10.9927 16.0142 10.2441C16.1433 9.88719 16.1497 9.76934 16.1693 7.38419L16.1724 7.01316C16.1821 5.84106 17.04 4.89655 18.0949 4.89655C19.1471 4.89655 20 5.84426 20 7.01332V11.2676Z" fill="currentColor"/>
</svg>
