<svg width="33" height="38" viewBox="0 0 33 38" fill="none" xmlns="http://www.w3.org/2000/svg">
<path fill-rule="evenodd" clip-rule="evenodd" d="M3.11465 0.227104C2.46776 0.576022 2.32425 1.4625 1.74432 8.69589C1.54473 11.1864 1.34484 13.4238 1.30039 13.6679C1.2558 13.912 1.05753 16.053 0.859561 18.4257C0.661738 20.7983 0.365445 24.2745 0.201034 26.1503C-0.127052 29.8959 -0.112186 30.0317 0.690881 30.6232C1.06018 30.895 1.34838 30.9341 3.3035 30.9759C4.86577 31.0094 5.50089 31.0729 5.50016 31.1953C5.49972 31.29 5.40125 32.552 5.28143 33.9998C5.029 37.0499 5.00648 38.065 5.19297 37.9968C5.26627 37.9701 6.01149 37.3151 6.84886 36.5412C7.68622 35.7675 9.39804 34.2049 10.6528 33.069L12.9343 31.0035L17.5707 30.9924C20.1208 30.9864 22.3251 30.9351 22.4694 30.8785C22.6135 30.8219 24.2031 29.359 26.0019 27.6274C27.8006 25.896 29.7592 24.0221 30.3543 23.4632C32.0979 21.8258 31.955 22.2671 32.3726 17.226C32.5744 14.7892 32.8141 12.0017 32.9054 11.0316C32.9967 10.0613 33.0273 9.10711 32.9734 8.91115C32.9197 8.71505 32.2747 7.86381 31.5404 7.0193C30.806 6.17479 29.896 5.12716 29.518 4.69124C29.14 4.25531 28.6652 3.71658 28.4628 3.494C28.2604 3.27158 27.7654 2.70697 27.3627 2.23945C26.9601 1.77179 26.3237 1.07659 25.9486 0.694619L25.2667 0L14.3904 0.00584942C5.09833 0.0108214 3.45599 0.0431395 3.11465 0.227104ZM22.1984 5.9395C22.3284 5.98893 23.2058 6.92674 24.1484 8.02336C25.0908 9.11983 26.0208 10.1717 26.2148 10.3605C26.8597 10.9883 26.8821 11.2402 26.6303 15.0623C26.5006 17.0328 26.3266 18.8941 26.2436 19.1984C26.1294 19.6181 25.7003 20.1305 24.4683 21.3188C21.3778 24.2997 20.8804 24.7444 20.4089 24.9481C20.0285 25.1123 18.7443 25.1525 13.8884 25.1525C7.50783 25.1525 7.39316 25.1415 6.80956 24.4728C6.42407 24.0313 6.41538 23.7446 6.69033 20.5392C6.83487 18.854 7.1503 15.1678 7.39125 12.3477C7.85078 6.96812 7.98913 6.25508 8.62249 6.00268C8.99444 5.85425 21.8186 5.79458 22.1984 5.9395ZM15.1589 9.54815C14.9362 9.70989 14.8574 10.2745 14.6136 13.46C14.4566 15.5074 14.3636 17.3308 14.4069 17.5117C14.4821 17.8268 14.55 17.8407 16.0194 17.8407C17.0428 17.8407 17.5893 17.7831 17.6611 17.6674C17.7204 17.5722 17.8535 16.5686 17.9568 15.4374C18.0601 14.3061 18.226 12.5656 18.3254 11.5697C18.4966 9.8551 18.4916 9.74806 18.2312 9.55898C17.8645 9.29253 15.522 9.28435 15.1589 9.54815ZM14.2248 19.0425C13.979 19.3465 13.8309 21.7603 14.0426 22.0137C14.2965 22.3176 17.0152 22.3209 17.2687 22.0177C17.3738 21.8919 17.4549 21.2309 17.4707 20.3725L17.4971 18.9375L15.9368 18.8963C14.8027 18.8661 14.3351 18.9062 14.2248 19.0425Z" 
fill="currentColor"/>
<defs>
<linearGradient id="paint0_linear_2_2761" x1="20.0914" y1="-1.90106" x2="3.42375" y2="38.0986" gradientUnits="userSpaceOnUse">
<stop stop-color="#F59407"/>
<stop offset="1" stop-color="#F57907"/>
</linearGradient>
</defs>
</svg>
