<svg width="16" height="15" viewBox="0 0 16 15" fill="none" xmlns="http://www.w3.org/2000/svg">
<path d="M7.12786 0.228674C7.95901 -0.238063 8.99659 0.0331412 9.50644 0.828587L9.57263 0.940286L15.7748 12.293C15.9225 12.5634 16 12.8674 16 13.1765C16 14.1416 15.2605 14.9316 14.3246 14.9958L14.2015 15H1.79888C1.49407 15 1.19427 14.9215 0.927621 14.7718C0.0964209 14.3051 -0.22735 13.2695 0.167175 12.4093L0.225446 12.2932L6.42587 0.940475C6.58936 0.641131 6.83263 0.394465 7.12786 0.228674ZM8.00072 10.9423C7.55984 10.9423 7.20243 11.3046 7.20243 11.7516C7.20243 12.1986 7.55984 12.561 8.00072 12.561C8.4416 12.561 8.799 12.1986 8.799 11.7516C8.799 11.3046 8.4416 10.9423 8.00072 10.9423ZM7.99899 4.4558C7.58906 4.45595 7.2513 4.76893 7.20527 5.17201L7.19993 5.26652L7.20137 9.31939L7.20678 9.4139C7.25309 9.81694 7.59107 10.1297 8.00101 10.1295C8.41094 10.1294 8.7487 9.81639 8.79473 9.41332L8.80007 9.3188L8.79863 5.26594L8.79322 5.17143C8.7469 4.76838 8.40893 4.45565 7.99899 4.4558Z" fill="#FE2C2C"/>
</svg>
