<svg width="20" height="20" viewBox="0 0 20 20" fill="none" xmlns="http://www.w3.org/2000/svg">
<path d="M4.62556 2.00967C3.86766 2.14363 3.28368 2.6629 3.05503 3.40608C3.00441 3.57057 3 3.71452 3 5.19501V6.80505L3.0842 7.04357C3.26928 7.56788 3.62266 7.96168 4.10848 8.185C4.50577 8.36765 4.58666 8.37432 6.2787 8.3644L7.80211 8.35545L8.03744 8.27227C8.30958 8.17608 8.46059 8.09209 8.66153 7.92527C8.94936 7.6863 9.1713 7.35246 9.2972 6.96903C9.34564 6.82141 9.35202 6.65296 9.361 5.28222C9.3721 3.59034 9.36553 3.5105 9.18258 3.11282C8.95917 2.62718 8.56522 2.27393 8.04072 2.08892L7.80211 2.00475L6.25112 2.00064C5.39807 1.99834 4.66657 2.00243 4.62556 2.00967ZM12.2612 2.00967C11.5033 2.14363 10.9193 2.6629 10.6907 3.40608C10.6401 3.57057 10.6356 3.71452 10.6356 5.19501V6.80505L10.7198 7.04357C10.9049 7.56788 11.2583 7.96168 11.7441 8.185C12.1414 8.36765 12.2223 8.37432 13.9144 8.3644L15.4378 8.35545L15.6731 8.27227C15.9452 8.17608 16.0962 8.09209 16.2972 7.92527C16.585 7.6863 16.8069 7.35246 16.9328 6.96903C16.9813 6.82141 16.9877 6.65296 16.9966 5.28222C17.0077 3.59034 17.0012 3.5105 16.8182 3.11282C16.5948 2.62718 16.2009 2.27393 15.6764 2.08892L15.4378 2.00475L13.8868 2.00064C13.0337 1.99834 12.3022 2.00243 12.2612 2.00967ZM4.62556 9.64244C3.86766 9.7764 3.28368 10.2957 3.05503 11.0388C3.00441 11.2033 3 11.3473 3 12.8278V14.4378L3.0842 14.6763C3.26928 15.2006 3.62266 15.5944 4.10848 15.8178C4.50577 16.0004 4.58666 16.0071 6.2787 15.9972L7.80211 15.9882L8.03744 15.905C8.30958 15.8088 8.46059 15.7249 8.66153 15.558C8.94936 15.3191 9.1713 14.9852 9.2972 14.6018C9.34564 14.4542 9.35202 14.2857 9.361 12.915C9.3721 11.2231 9.36553 11.1433 9.18258 10.7456C8.95917 10.2599 8.56522 9.90669 8.04072 9.72169L7.80211 9.63752L6.25112 9.6334C5.39807 9.63111 4.66657 9.63519 4.62556 9.64244ZM12.2612 9.64244C11.5033 9.7764 10.9193 10.2957 10.6907 11.0388C10.6401 11.2033 10.6356 11.3473 10.6356 12.8278V14.4378L10.7198 14.6763C10.9049 15.2006 11.2583 15.5944 11.7441 15.8178C12.1414 16.0004 12.2223 16.0071 13.9144 15.9972L15.4378 15.9882L15.6731 15.905C15.9452 15.8088 16.0962 15.7249 16.2972 15.558C16.585 15.3191 16.8069 14.9852 16.9328 14.6018C16.9813 14.4542 16.9877 14.2857 16.9966 12.915C17.0077 11.2231 17.0012 11.1433 16.8182 10.7456C16.5948 10.2599 16.2009 9.90669 15.6764 9.72169L15.4378 9.63752L13.8868 9.6334C13.0337 9.63111 12.3022 9.63519 12.2612 9.64244Z" fill="currentColor"/>
</svg>
