<svg width="24" height="14" viewBox="0 0 24 14" fill="none" xmlns="http://www.w3.org/2000/svg">
<path fill-rule="evenodd" clip-rule="evenodd" d="M10.9195 0.0479985C8.4975 0.273632 5.86019 1.31938 3.34982 3.04962C2.27825 3.78816 1.10296 4.73168 0.715472 5.16452C-0.228373 6.21868 -0.239528 7.73949 0.688803 8.79554C0.96389 9.10841 1.56703 9.62724 2.36553 10.2379C5.03273 12.2776 7.78599 13.5266 10.4274 13.8953C13.6353 14.343 17.1343 13.3492 20.5515 11.0195C21.6353 10.2806 22.958 9.21248 23.3203 8.78342C24.2665 7.6629 24.221 6.16881 23.2079 5.09433C22.8742 4.7404 22.1056 4.1058 21.2551 3.48195C17.7544 0.914196 14.2215 -0.259591 10.9195 0.0479985ZM12.5366 2.58134C15.5468 2.91939 17.4938 5.58812 16.6581 8.23074C15.9091 10.5996 13.2322 11.9526 10.6454 11.2698C8.21693 10.6288 6.73406 8.37356 7.24285 6.09484C7.69286 4.07926 9.63379 2.60609 11.9272 2.53942C12.0304 2.53642 12.3046 2.55527 12.5366 2.58134ZM11.2778 4.40579C10.7409 4.5249 10.1289 4.88678 9.74572 5.31172C9.31287 5.79172 9.09295 6.3609 9.09295 7.00086C9.09295 7.45964 9.18838 7.83544 9.39756 8.2002C9.92552 9.12099 10.8809 9.66152 11.9835 9.66332C12.4948 9.66418 12.7892 9.60362 13.2396 9.40496C13.8835 9.12095 14.311 8.72917 14.6209 8.13912C14.8377 7.72634 14.9038 7.45651 14.9029 6.98802C14.9013 6.18247 14.5291 5.46352 13.8395 4.9339C13.5452 4.70784 13.0553 4.48147 12.6891 4.40235C12.3244 4.32358 11.641 4.32521 11.2778 4.40579Z" fill="currentColor"/>
</svg>
