<svg width="24" height="18" viewBox="0 0 24 18" fill="none" xmlns="http://www.w3.org/2000/svg">
<path fill-rule="evenodd" clip-rule="evenodd" d="M2.25447 0.0410232C1.78089 0.211278 1.46658 0.61971 1.46278 1.06976C1.45869 1.55332 1.46592 1.56255 3.02367 3.06539C4.33737 4.33271 4.45385 4.45738 4.36804 4.50373C4.15288 4.61998 3.2092 5.25011 2.79461 5.55436C2.12681 6.0444 1.38213 6.64732 0.79132 7.17628C0.104081 7.79159 0 7.97779 0 8.59161C0 9.1543 0.0947818 9.3469 0.606547 9.82397C3.19882 12.2406 6.33488 14.0208 9.18228 14.6921C10.2624 14.9467 10.8137 15.0085 12.0004 15.0081C13.1187 15.0077 13.6682 14.953 14.6161 14.7476L15.0948 14.6439L16.7062 16.1923C17.5924 17.044 18.4064 17.7915 18.515 17.8535C19.2475 18.2718 20.2296 17.7416 20.2365 16.9242C20.2409 16.4023 20.8281 16.9999 11.7488 8.28465C7.12789 3.8491 3.29148 0.201685 3.18022 0.138177C2.94927 0.00634172 2.48617 -0.0422576 2.25447 0.0410232ZM11.3311 2.15606C10.571 2.19678 9.91296 2.29587 9.10257 2.49161C8.75022 2.5767 8.45573 2.65232 8.44812 2.65962C8.44046 2.66691 8.81917 3.04062 9.2897 3.48999L10.1451 4.30704L10.4771 4.19894C12.7883 3.44635 15.3309 4.49833 16.3776 6.64021C16.6901 7.2797 16.8039 7.78339 16.8086 8.54657C16.8127 9.23105 16.7445 9.64953 16.5452 10.1624L16.4512 10.4045L17.7833 11.6825C18.516 12.3855 19.1279 12.9606 19.1432 12.9606C19.2052 12.9606 20.7496 11.9542 21.2601 11.5812C21.9329 11.0896 22.8338 10.3493 23.3705 9.84708C23.9062 9.34568 23.9991 9.16052 24 8.59161C24.0011 7.97788 23.8963 7.79019 23.2109 7.17727C21.1175 5.30546 18.8637 3.87608 16.7207 3.06098C14.8434 2.34694 13.1318 2.05958 11.3311 2.15606ZM11.6356 5.34852C11.4738 5.36591 11.3319 5.38915 11.3205 5.40014C11.309 5.41117 12.2058 6.28902 13.3133 7.35091L15.3271 9.28168L15.3609 9.06535C15.4178 8.70191 15.354 7.92554 15.2408 7.60071C14.7234 6.11741 13.2204 5.17844 11.6356 5.34852ZM8.61866 8.73015C8.61866 9.55368 9.13137 10.5527 9.8303 11.0911C10.4023 11.5317 11.2319 11.8319 11.8823 11.8338L12.1634 11.8346L12.7629 12.4082C13.0927 12.7237 13.3624 12.9944 13.3624 13.0097C13.3624 13.0251 13.1881 13.0752 12.975 13.1211C12.4835 13.2268 11.5147 13.2298 11.0359 13.127C9.53684 12.805 8.3384 11.9183 7.67845 10.643C7.32596 9.96166 7.19975 9.44054 7.19261 8.63665C7.18825 8.14012 7.20825 7.89365 7.27622 7.60859L7.36564 7.23358L7.99215 7.83316L8.61866 8.4327V8.73015Z" fill="currentColor"/>
</svg>
