<svg width="18" height="18" viewBox="0 0 18 18" fill="none" xmlns="http://www.w3.org/2000/svg">
<path fill-rule="evenodd" clip-rule="evenodd" d="M10.316 0.0585696C9.40383 0.259048 8.62661 0.973598 8.41424 1.80698C8.16715 2.77661 8.68441 3.85115 9.63667 4.34635C10.0756 4.5746 10.3852 4.64421 10.9469 4.64095C11.3811 4.63842 11.5021 4.62264 11.7567 4.5354C12.692 4.21489 13.2993 3.56303 13.4628 2.70434C13.7325 1.28747 12.5012 -0.0131389 10.9025 0.000100207C10.7194 0.00162935 10.4555 0.0279466 10.316 0.0585696ZM8.08361 5.9346C7.13521 6.06643 6.18482 6.2956 5.32614 6.5995C5.07915 6.68694 4.84538 6.79016 4.80671 6.82891C4.70812 6.92766 4.45717 8.01898 4.50631 8.1354C4.52717 8.18485 4.58559 8.2591 4.63616 8.30038C4.7419 8.3867 4.84116 8.38014 5.36592 8.25197C6.38809 8.00236 7.09402 8.06827 7.28397 8.43108C7.42256 8.69582 7.36184 9.01787 6.9093 10.4184C6.04654 13.0887 5.78938 14.1867 5.78303 15.2272C5.77477 16.583 6.12938 17.101 7.44831 17.6601C8.08423 17.9296 8.46596 18.0012 9.26 18C9.85334 17.9991 10.0214 17.9834 10.4808 17.8867C11.4866 17.6748 12.9451 17.1964 13.0569 17.0417C13.1291 16.9419 13.4773 15.9184 13.4773 15.8061C13.4773 15.7668 13.4323 15.6873 13.3774 15.6294C13.2521 15.4974 13.1018 15.4916 12.7268 15.6042C12.0205 15.8165 11.1882 15.8666 10.8696 15.716C10.6442 15.6095 10.5777 15.4812 10.5563 15.1116C10.5123 14.3521 10.7874 13.2688 11.6558 10.7805C12.0207 9.73495 12.113 9.29054 12.1111 8.5875C12.1083 7.54676 11.7435 6.82883 10.9831 6.36779C10.2588 5.92869 9.23092 5.77509 8.08361 5.9346Z" fill="white"/>
</svg>
