<svg width="20" height="20" viewBox="0 0 20 20" fill="none" xmlns="http://www.w3.org/2000/svg">
<path d="M4.07987 2.03931C3.8938 2.11027 3.74062 2.25241 3.64605 2.44188L3.56008 2.61416V4.0475V5.48084L2.94013 5.49073C2.32174 5.50056 2.3199 5.50082 2.20989 5.58686C1.98771 5.76058 1.9909 5.73285 2.00593 7.35153C2.02038 8.90898 2.02235 8.93008 2.20482 9.50327C2.61382 10.7879 3.7082 11.8656 4.97364 12.2299L5.27266 12.316L5.28882 13.4553C5.30611 14.6726 5.32105 14.8144 5.48643 15.3304C6.01497 16.9793 7.55674 18.0891 9.18741 17.9944C10.5467 17.9155 11.7212 17.129 12.3275 15.8915C12.5879 15.3599 12.6784 14.9874 12.7214 14.2691C12.7547 13.7114 12.8311 13.4107 13.0235 13.0785C13.1903 12.7907 13.5623 12.4368 13.8486 12.2936C14.2927 12.0714 14.2943 12.0713 15.9397 12.0511C17.388 12.0334 17.4278 12.0312 17.5518 11.9632C18.0806 11.6734 18.1569 10.934 17.6982 10.5454C17.4785 10.3593 17.4102 10.3518 15.9262 10.3519C15.1364 10.352 14.4635 10.3666 14.2985 10.3873C13.7567 10.4553 13.1659 10.6843 12.6807 11.0143C12.3921 11.2105 11.9026 11.7108 11.7154 12.0009C11.2953 12.6519 11.1254 13.1995 11.0645 14.0983C11.0484 14.3361 11.013 14.6156 10.9858 14.7194C10.8031 15.416 10.2265 16.0221 9.5467 16.2319C9.24781 16.3241 8.71204 16.3096 8.38592 16.2004C7.72261 15.9783 7.20163 15.4096 7.02926 14.7193C6.97389 14.4975 6.96761 14.3624 6.96761 13.3951V12.318L7.27241 12.2312C7.44007 12.1835 7.74603 12.0585 7.95235 11.9535C9.09566 11.3717 9.87073 10.351 10.1776 9.02295C10.2206 8.83649 10.2314 8.55527 10.2417 7.35098C10.2556 5.73237 10.2588 5.76013 10.0372 5.58686C9.92809 5.50152 9.92043 5.50043 9.31477 5.48458L8.70263 5.46857L8.687 4.0116L8.67137 2.55463L8.58331 2.40118C8.42472 2.1248 8.13204 1.96941 7.83725 2.00505C7.5859 2.03543 7.38555 2.17389 7.22955 2.42507C7.17487 2.51313 7.16972 2.62194 7.15518 3.99412L7.13955 5.46857L6.13286 5.47703L5.12617 5.48548L5.11685 4.05208C5.10657 2.47176 5.11154 2.51303 4.9034 2.27021C4.847 2.20441 4.74424 2.12103 4.67509 2.08487C4.51297 2.00018 4.23783 1.97911 4.07987 2.03931Z" fill="currentColor"/>
</svg>
