<svg width="20" height="20" viewBox="0 0 20 20" fill="none" xmlns="http://www.w3.org/2000/svg">
<path d="M5.37063 0.0507497C5.17038 0.15457 5.13666 0.292716 5.13591 1.0119L5.1352 1.67981L2.6976 1.69277L0.259996 1.70573L0.129998 1.83594L0 1.9661V3.00214V4.03819L0.131593 4.15154C0.262482 4.26428 0.268813 4.26484 1.35091 4.26503L2.43864 4.26522L2.77887 4.94111C3.20043 5.77853 3.75329 6.69803 4.27352 7.42707C4.60738 7.89494 4.66098 7.99459 4.61108 8.05478C4.52114 8.1633 3.83353 8.68912 3.52903 8.8822C2.95821 9.24419 2.34728 9.51686 1.71173 9.69337C1.28844 9.8109 1.10104 9.95116 1.1032 10.1488C1.10381 10.2054 1.19648 10.6629 1.30908 11.1654C1.59843 12.4565 1.57794 12.4448 2.82582 12.0343C3.93089 11.6708 5.11335 11.0038 6.02052 10.2322C6.35649 9.94647 6.42435 9.90669 6.48902 9.95755C6.53062 9.99023 6.69152 10.1233 6.84661 10.2531C7.30423 10.6363 7.98376 11.0921 8.52594 11.3793C8.8046 11.5269 9.04016 11.64 9.0494 11.6306C9.06821 11.6115 10.0594 9.33669 10.0594 9.3126C10.0594 9.3042 9.898 9.21019 9.7008 9.10365C9.31132 8.89333 8.70326 8.46809 8.37657 8.17762L8.17102 7.99487L8.57204 7.43289C9.0962 6.69836 9.64823 5.78059 10.0709 4.94111L10.4111 4.26522L11.3591 4.26503C12.2432 4.26484 12.3103 4.25879 12.3549 4.17544C12.3812 4.12623 12.5098 4.02001 12.6407 3.93934L12.8787 3.79275L12.8642 2.88203C12.8501 1.99225 12.8471 1.96854 12.7361 1.85026L12.6223 1.7292H10.1716H7.721L7.70604 0.979076C7.6855 -0.0518029 7.77423 0.0190072 6.48227 0.00285426C5.7428 -0.00634917 5.45701 0.0059534 5.37063 0.0507497ZM8.44828 3.57797C8.68473 3.78162 8.62076 3.98081 7.94859 5.13354C7.44947 5.9895 6.74273 7.00221 6.60851 7.05377C6.42885 7.12279 6.24994 7.08058 6.11666 6.93774C5.83092 6.63149 5.03227 5.39015 4.54866 4.50061C4.23488 3.92343 4.20655 3.74584 4.40146 3.57797L4.5308 3.46659H6.42487H8.31894L8.44828 3.57797ZM13.0174 4.62876C12.8987 4.72577 6.49521 19.4192 6.49521 19.5948C6.49521 19.6572 6.54614 19.7675 6.60837 19.84L6.72158 19.9717H7.96712C9.15051 19.9717 9.21725 19.967 9.30518 19.8778C9.35606 19.8262 9.6706 19.1289 10.0041 18.3283L10.6105 16.8726L13.2543 16.8612L15.898 16.8498L16.2934 17.8003C17.1769 19.9244 17.1438 19.8535 17.285 19.9266C17.4569 20.0156 19.6185 20.0277 19.7818 19.9406C19.9337 19.8596 19.9984 19.7548 20 19.5868C20.0018 19.4014 13.6763 4.82015 13.5232 4.65702C13.3979 4.52343 13.1625 4.51029 13.0174 4.62876ZM13.4963 9.16004C13.5761 9.21982 15.7629 14.3998 15.8118 14.645C15.8333 14.7523 15.81 14.808 15.6961 14.9221L15.5535 15.0648H13.2498H10.9461L10.8311 14.9495C10.7586 14.8771 10.7159 14.7806 10.7159 14.6897C10.7159 14.5284 12.8746 9.32336 12.9983 9.18662C13.0883 9.08698 13.3782 9.07153 13.4963 9.16004Z" fill="currentColor"/>
</svg>
