<svg width="166" height="20" viewBox="0 0 166 20" fill="none" xmlns="http://www.w3.org/2000/svg">
<path d="M0 0.990874H9.82013C11.7628 0.990874 13.3461 1.38201 14.5699 2.16428C15.8132 2.92916 16.4349 4.09387 16.4349 5.65841C16.4349 6.5276 16.1823 7.30117 15.6772 7.97914C15.1721 8.63972 14.4825 9.14385 13.6083 9.49152C16.1338 10.1347 17.3965 11.6471 17.3965 14.0287C17.3965 15.7844 16.736 17.1491 15.415 18.1226C14.094 19.0787 12.4136 19.5567 10.3738 19.5567H0V0.990874ZM4.42926 4.14602V8.50065H8.56712C10.8595 8.50065 12.0056 7.77923 12.0056 6.33637C12.0056 5.48457 11.6948 4.91091 11.0731 4.61538C10.4515 4.30248 9.61615 4.14602 8.56712 4.14602H4.42926ZM4.42926 11.2647V16.3233H9.00421C10.1892 16.3233 11.1217 16.1495 11.8016 15.8018C12.501 15.4542 12.8507 14.7849 12.8507 13.794C12.8507 12.7857 12.4816 12.1165 11.7434 11.7862C11.0246 11.4385 10.0338 11.2647 8.7711 11.2647H4.42926Z" fill="#4759FF"/>
<path d="M29.9296 0.547588C32.9601 0.547588 35.4079 1.45154 37.2728 3.25945C39.1572 5.04998 40.0994 7.39678 40.0994 10.2999C40.0994 13.203 39.1572 15.5498 37.2728 17.3403C35.4079 19.1134 32.9504 20 29.9004 20C26.831 20 24.3542 19.1134 22.4698 17.3403C20.5854 15.5498 19.6432 13.203 19.6432 10.2999C19.6432 7.36202 20.5757 5.00652 22.4406 3.23338C24.325 1.44285 26.8213 0.547588 29.9296 0.547588ZM29.8713 3.88527C28.1618 3.88527 26.7922 4.45893 25.7626 5.60626C24.7524 6.75358 24.2473 8.29205 24.2473 10.2216C24.2473 12.2208 24.7524 13.7853 25.7626 14.9153C26.7728 16.0452 28.1618 16.6189 29.9296 16.6362C31.6585 16.6362 33.0184 16.0626 34.0092 14.9153C34.9999 13.7679 35.4953 12.2034 35.4953 10.2216C35.4953 8.27466 34.9902 6.7362 33.98 5.60626C32.9698 4.45893 31.6003 3.88527 29.8713 3.88527Z" fill="#4759FF"/>
<path d="M58.6417 0.990874V4.45893H52.4057V19.5567H47.8308V4.45893H41.5949V0.990874H58.6417Z" fill="#4759FF"/>
<path d="M70.4237 0.547588C73.4543 0.547588 75.902 1.45154 77.767 3.25945C79.6513 5.04998 80.5935 7.39678 80.5935 10.2999C80.5935 13.203 79.6513 15.5498 77.767 17.3403C75.902 19.1134 73.4446 20 70.3946 20C67.3252 20 64.8483 19.1134 62.9639 17.3403C61.0796 15.5498 60.1374 13.203 60.1374 10.2999C60.1374 7.36202 61.0698 5.00652 62.9348 3.23338C64.8192 1.44285 67.3155 0.547588 70.4237 0.547588ZM70.3654 3.88527C68.6559 3.88527 67.2863 4.45893 66.2567 5.60626C65.2465 6.75358 64.7415 8.29205 64.7415 10.2216C64.7415 12.2208 65.2465 13.7853 66.2567 14.9153C67.2669 16.0452 68.6559 16.6189 70.4237 16.6362C72.1527 16.6362 73.5126 16.0626 74.5033 14.9153C75.4941 13.7679 75.9894 12.2034 75.9894 10.2216C75.9894 8.27466 75.4844 6.7362 74.4742 5.60626C73.464 4.45893 72.0944 3.88527 70.3654 3.88527Z" fill="#4759FF"/>
<path d="M101.292 0.990874V19.5567H96.7463V11.5515H88.2666V19.5567H83.7208V0.990874H88.2666V7.97914H96.7463V0.990874H101.292Z" fill="#4759FF"/>
<path d="M114.703 0.547588C117.733 0.547588 120.181 1.45154 122.046 3.25945C123.93 5.04998 124.872 7.39678 124.872 10.2999C124.872 13.203 123.93 15.5498 122.046 17.3403C120.181 19.1134 117.723 20 114.673 20C111.604 20 109.127 19.1134 107.243 17.3403C105.358 15.5498 104.416 13.203 104.416 10.2999C104.416 7.36202 105.349 5.00652 107.214 3.23338C109.098 1.44285 111.594 0.547588 114.703 0.547588ZM114.644 3.88527C112.935 3.88527 111.565 4.45893 110.536 5.60626C109.525 6.75358 109.02 8.29205 109.02 10.2216C109.02 12.2208 109.525 13.7853 110.536 14.9153C111.546 16.0452 112.935 16.6189 114.703 16.6362C116.432 16.6362 117.791 16.0626 118.782 14.9153C119.773 13.7679 120.268 12.2034 120.268 10.2216C120.268 8.27466 119.763 6.7362 118.753 5.60626C117.743 4.45893 116.373 3.88527 114.644 3.88527Z" fill="#4759FF"/>
<path d="M166 0.990876V4.45893H159.764V19.5567H155.189V4.45893H148.953V0.990876H166Z" fill="#4759FF"/>
<path fill-rule="evenodd" clip-rule="evenodd" d="M136.43 6.88088C136.43 13.0173 136.408 13.7534 136.223 13.6846C133.881 12.8156 131.285 13.1865 129.957 14.58C128.375 16.2404 129.183 18.3543 131.765 19.3052C132.737 19.6635 134.734 19.6344 135.765 19.247C136.684 18.902 137.566 18.1953 137.923 17.518C138.175 17.0393 138.189 16.7218 138.189 11.1735V5.33302L138.831 5.42275C139.59 5.52882 140.703 6.00035 141.129 6.3964C141.625 6.85864 141.879 7.4696 141.879 8.20455C141.879 8.58387 141.931 8.89425 141.994 8.89425C142.058 8.89425 142.363 8.67359 142.672 8.40376C143.701 7.50675 144.007 6.32133 143.427 5.48017C143.202 5.15448 142.693 4.82068 141.521 4.23079C140.641 3.78803 139.739 3.2583 139.516 3.05361C138.897 2.48477 138.466 1.68167 138.305 0.799175L138.16 0H136.43V6.88088Z" fill="#4759FF"/>
</svg>
