<svg width="20" height="20" viewBox="0 0 20 20" fill="none" xmlns="http://www.w3.org/2000/svg">
<path d="M0.484242 0.0930545C0.272142 0.191813 0.117941 0.363155 0.0449225 0.581259C0.0122226 0.678923 0.000463153 2.95669 0.000463153 9.18673C0.000463153 18.5947 -0.0229776 17.8017 0.263664 18.0958C0.341839 18.176 0.459942 18.2595 0.526162 18.2814C0.763109 18.3596 9.04693 20.0009 9.20047 20C9.39444 19.9989 9.63592 19.8906 9.77516 19.7421C9.96163 19.5432 10.0019 19.3852 10.0019 18.8515C10.0019 18.5817 10.2198 18.3626 10.4896 18.3612L12.1799 18.3522C14.083 18.342 14.3752 18.3326 14.4947 18.2777C14.6755 18.1945 14.8409 18.0251 14.9292 17.8327C14.9965 17.686 15.0009 17.5134 15.0009 15.0004C15.0009 12.4875 14.9965 12.3149 14.9292 12.1682C14.7808 11.8448 14.5156 11.6743 14.1611 11.6743C13.8016 11.6743 13.4699 11.9202 13.3672 12.2628C13.3362 12.3664 13.3226 13.0549 13.3226 14.5264V14.9808C13.3226 15.8978 12.5793 16.6412 11.6623 16.6412C10.7452 16.6412 10.0018 15.8979 10.0017 14.9808L10.001 9.89261C10.0002 3.44946 9.99695 3.13694 9.92901 2.98739C9.88986 2.90129 9.79352 2.77433 9.71488 2.7053C9.56067 2.5699 9.57564 2.57505 7.71639 2.01395C7.53015 1.95775 7.57058 1.68314 7.76512 1.683L9.97132 1.68143L11.1227 1.68061C12.3378 1.67974 13.3251 2.66135 13.3312 3.87649C13.3432 6.2872 13.3317 6.17 13.5819 6.42021C13.7573 6.59558 13.9064 6.65656 14.1626 6.65766C14.4572 6.65891 14.695 6.53604 14.8641 6.2952C14.9415 6.18495 14.9833 6.05364 14.9839 5.91892L14.9948 3.42387C15.0029 1.54802 14.9934 0.67693 14.9637 0.574774C14.9076 0.381906 14.7102 0.160951 14.5146 0.0720762C14.365 0.00414097 14.0501 0.000898511 7.52105 0.000468789L0.90466 1.51196e-05C0.759413 5.16041e-06 0.615922 0.0317602 0.484242 0.0930545ZM16.4343 5.86013C16.1735 5.9383 15.9381 6.18 15.861 6.44877C15.7482 6.84216 15.8497 7.03132 16.5559 7.74317C16.7679 7.95685 16.6166 8.32021 16.3156 8.32021H14.771C13.1177 8.32021 12.3692 8.33354 12.2648 8.36479C11.9193 8.46827 11.6818 8.79068 11.6818 9.15602C11.6818 9.41976 11.7187 9.52062 11.8839 9.70884C12.1484 10.01 12.0329 9.9982 14.7264 9.99918L16.3173 9.99975C16.6179 9.99986 16.7694 10.3622 16.5585 10.5763C16.2462 10.8932 15.9603 11.2116 15.9231 11.2839C15.8859 11.3561 15.8465 11.5055 15.8355 11.6159C15.8187 11.7849 15.8334 11.8504 15.9284 12.0308C16.076 12.3108 16.2829 12.4579 16.5716 12.4876C16.9789 12.5297 16.9641 12.541 18.4741 11.0406C19.3871 10.1334 19.8802 9.61501 19.9285 9.51172C20.0114 9.33436 20.0225 9.11516 19.9602 8.88667C19.9244 8.75544 19.7007 8.51269 18.5638 7.37154C17.1474 5.94998 16.985 5.8161 16.6846 5.82337C16.6082 5.8252 16.4956 5.84177 16.4343 5.86013Z" fill="currentColor"/>
</svg>
