<svg width="30" height="30" viewBox="0 0 30 30" fill="none" xmlns="http://www.w3.org/2000/svg">
<path d="M11.7026 0.18272C8.67813 0.886136 5.75298 2.64541 3.75844 4.96043C1.685 7.36715 0.453769 10.1129 0.0742454 13.1766C-0.0369423 14.0744 -0.0209111 15.9082 0.106675 16.8759C0.675115 21.1892 3.05058 25.0163 6.68881 27.4806C8.02248 28.3839 9.60904 29.106 11.1757 29.5226C12.6618 29.9178 13.3328 30 15.072 30C16.8091 30 17.4826 29.9177 18.9603 29.5247C24.4248 28.0716 28.7236 23.5169 29.8484 17.9883C29.9318 17.5785 30 17.1875 30 17.1194C30 17.0365 29.8359 17.1474 29.5036 17.4548C27.8179 19.0147 25.8334 20.0292 23.5673 20.4898C22.876 20.6303 22.5291 20.6541 21.2123 20.6513C19.4878 20.6477 18.8124 20.5446 17.3782 20.0659C11.4144 18.0754 7.98306 11.7523 9.52278 5.58989C10.0036 3.66518 10.8796 2.04364 12.3566 0.343879C12.5238 0.151489 12.6158 -0.00326226 12.561 5.2267e-05C12.5062 0.00344045 12.12 0.0855671 11.7026 0.18272Z" fill="currentColor"/>
</svg>
