<svg width="18" height="18" viewBox="0 0 18 18" fill="none" xmlns="http://www.w3.org/2000/svg">
<path fill-rule="evenodd" clip-rule="evenodd" d="M11.8983 2.02688C11.5376 2.09172 11.1547 2.32602 11.0479 2.54728C11.0141 2.61723 11 4.51821 11 9.01958V15.3929L11.1363 15.562C11.4042 15.8945 11.8269 16.0165 12.6481 15.9982C13.2243 15.9854 13.3995 15.9422 13.682 15.7432C14.0281 15.4993 13.9994 16.1085 13.9994 8.99641C13.9994 2.70551 13.9984 2.62658 13.9116 2.4828C13.8077 2.31054 13.5347 2.13368 13.2496 2.05385C13.0853 2.0079 12.9635 1.99862 12.5438 2.00015C12.2648 2.00119 11.9743 2.0132 11.8983 2.02688Z" fill="white"/>
<path fill-rule="evenodd" clip-rule="evenodd" d="M4.89828 2.02688C4.53765 2.09172 4.15474 2.32602 4.04786 2.54728C4.01407 2.61723 4 4.51821 4 9.01958V15.3929L4.13625 15.562C4.40417 15.8945 4.82691 16.0165 5.64814 15.9982C6.22429 15.9854 6.39954 15.9422 6.68197 15.7432C7.02809 15.4993 6.99942 16.1085 6.99942 8.99641C6.99942 2.70551 6.99836 2.62658 6.91164 2.4828C6.80772 2.31054 6.53473 2.13368 6.24957 2.05385C6.08535 2.0079 5.96347 1.99862 5.54382 2.00015C5.26483 2.00119 4.97433 2.0132 4.89828 2.02688Z" fill="white"/>
</svg>
