<svg width="14" height="14" viewBox="0 0 14 14" fill="none" xmlns="http://www.w3.org/2000/svg">
<path fill-rule="evenodd" clip-rule="evenodd" d="M0.867162 0.0245016C0.566919 0.0849587 0.324825 0.280965 0.170859 0.588257C-0.00969944 0.948592 0.000140356 0.579886 0.000140356 6.98659C0.000140356 13.4467 -0.0118797 13.0316 0.186551 13.4185C0.310252 13.6597 0.458136 13.8079 0.677509 13.9107C0.829753 13.982 0.874706 13.9897 1.1333 13.9895C1.38331 13.9892 1.44596 13.9791 1.62098 13.9105C1.73143 13.8672 1.92507 13.768 2.05129 13.6901C2.40174 13.4738 10.2041 8.3493 10.3916 8.21228C10.7361 7.96055 10.987 7.57047 11.0484 7.1914C11.0898 6.93581 11.0351 6.63968 10.8972 6.37247C10.6941 5.97906 10.7546 6.02203 6.21098 3.04331C3.92315 1.54345 1.95981 0.26912 1.84801 0.211454C1.73619 0.153787 1.58128 0.088132 1.50377 0.0655906C1.32111 0.0124649 1.02262 -0.00682114 0.867162 0.0245016ZM12.6331 0.0268816C12.3985 0.0917157 12.1495 0.326021 12.08 0.547278C12.058 0.617227 12.0489 2.51821 12.0489 7.01958V13.3929L12.1375 13.562C12.3117 13.8945 12.5867 14.0165 13.1208 13.9982C13.4955 13.9854 13.6095 13.9422 13.7932 13.7432C14.0183 13.4993 13.9996 14.1085 13.9996 6.99641C13.9996 0.705506 13.9989 0.626583 13.9425 0.482799C13.8749 0.310537 13.6974 0.13368 13.5119 0.0538548C13.4051 0.00789647 13.3259 -0.00137726 13.0529 0.000154679C12.8715 0.00119421 12.6826 0.0132036 12.6331 0.0268816Z" fill="#FF6838"/>
</svg>
