<svg width="20" height="20" viewBox="0 0 20 20" fill="none" xmlns="http://www.w3.org/2000/svg">
<path d="M17.1328 2.00416C16.9685 2.02202 13.9017 3.08955 13.7377 3.18598C13.6535 3.23547 13.5492 3.34619 13.4848 3.4544L13.3751 3.63863L13.3656 8.68163C13.3603 11.4553 13.344 13.7182 13.3294 13.7103C12.6048 13.3208 11.9677 13.1678 11.2394 13.2084C10.5409 13.2472 9.92445 13.4495 9.39988 13.8119C7.5703 15.0761 8.26642 17.4063 10.6291 17.9266C11.0738 18.0245 11.8103 18.0245 12.255 17.9266C13.3426 17.6871 14.1688 17.0238 14.4489 16.1653L14.531 15.9137L14.542 11.9553L14.553 7.99688L16.0713 7.47171C17.7011 6.908 17.7652 6.87694 17.9198 6.57685C17.9996 6.42178 18 6.4121 18 4.52527V2.62952L17.9077 2.44323C17.7616 2.1485 17.4466 1.97002 17.1328 2.00416ZM2.45508 3.81186C2.01713 3.92146 1.85601 4.43402 2.14677 4.79283C2.33534 5.02557 2.1115 5.01401 6.42892 5.01401H10.3789L10.538 4.92959C10.7452 4.81966 10.8339 4.68766 10.8552 4.45762C10.8765 4.22668 10.7681 4.00111 10.5762 3.87718L10.4484 3.7946L6.51 3.78863C4.34389 3.78537 2.51918 3.79584 2.45508 3.81186ZM2.306 7.06623C2.12505 7.15883 2.00322 7.37356 2.00322 7.59988C2.00322 7.83277 2.10092 8.00713 2.29473 8.12025L2.43691 8.20325H6.44634H10.4558L10.5777 8.11792C10.9621 7.8489 10.9621 7.35694 10.5777 7.08791L10.4558 7.00259L6.44142 7.00346C2.78403 7.00424 2.41631 7.0098 2.306 7.06623ZM2.35301 10.2446C2.29242 10.272 2.19956 10.3479 2.14666 10.4132C1.90056 10.7168 1.9716 11.1327 2.30441 11.3362C2.42321 11.4089 2.50184 11.4116 4.80334 11.4219C6.39608 11.4291 7.22654 11.4195 7.32193 11.3928C7.58959 11.3179 7.79269 11.0619 7.79269 10.7992C7.79269 10.6143 7.64336 10.374 7.46895 10.2782L7.31159 10.1918L4.88742 10.1933C2.95367 10.1945 2.44092 10.2048 2.35301 10.2446Z" fill="currentColor"/>
</svg>
