<svg width="20" height="18" viewBox="0 0 20 18" fill="none" xmlns="http://www.w3.org/2000/svg">
<path
 d="M9.1259 0.605833C9.40673 -0.201945 10.5933 -0.201944 10.8741 0.605834L12.6182 5.62259C12.744 5.98448 13.096 6.22843 13.4923 6.22843H19.0765C19.9761 6.22843 20.3429 7.34221 19.6077 7.84142L15.1378 10.8766C14.8051 11.1025 14.6657 11.5119 14.7949 11.8837L16.5134 16.8266C16.7961 17.6397 15.8358 18.3279 15.1081 17.8338L10.5312 14.726C10.2127 14.5097 9.78731 14.5097 9.46878 14.726L4.89194 17.8338C4.16419 18.3279 3.20393 17.6397 3.48662 16.8266L5.20505 11.8837C5.33431 11.5119 5.19493 11.1025 4.86217 10.8766L0.39231 7.84142C-0.342884 7.34221 0.0239231 6.22843 0.923525 6.22843H6.50768C6.90401 6.22843 7.25597 5.98448 7.38178 5.62259L9.1259 0.605833Z" 
 fill="currentColor"/>
</svg>
