<svg width="41" height="40" viewBox="0 0 41 40" fill="none" xmlns="http://www.w3.org/2000/svg">
<path fill-rule="evenodd" clip-rule="evenodd" d="M9.52179 0.0191119C4.84177 0.377128 1.58612 1.32561 0.602254 2.61778C0.161986 3.19604 0.259381 3.7243 0.918494 4.33291C3.08289 6.33142 11.3082 7.25486 17.7617 6.22392C21.4783 5.63017 23.866 4.40559 23.6697 3.19392C23.4406 1.77907 20.6071 0.677405 15.77 0.122621C15.0684 0.0421138 10.2616 -0.0375323 9.52179 0.0191119ZM0.34467 9.04877C0.34467 11.3388 0.338343 11.308 0.918494 11.8437C3.07922 13.8388 11.3106 14.7658 17.7404 13.738C20.8514 13.2408 23.0236 12.3321 23.544 11.3101C23.6848 11.0337 23.6975 10.8426 23.6975 9.00895V7.00911L23.4046 7.15683C20.5571 8.59304 14.7902 9.37753 9.52179 9.04541C5.7801 8.80952 2.51258 8.11704 0.650209 7.16528L0.34467 7.00911V9.04877ZM0.34467 16.5596C0.34467 18.8496 0.338343 18.8188 0.918494 19.3546C3.07922 21.3496 11.3106 22.2766 17.7404 21.2489C20.8514 20.7517 23.0236 19.8429 23.544 18.8209C23.6848 18.5446 23.6975 18.3534 23.6975 16.5198V14.5199L23.4046 14.6677C20.5571 16.1039 14.7902 16.8884 9.52179 16.5562C5.7801 16.3204 2.51258 15.6279 0.650209 14.6761L0.34467 14.5199V16.5596ZM27.2025 21.7213C23.8433 21.9709 21.0811 22.6624 19.6901 23.6018C18.8843 24.1461 18.5516 24.7102 18.7059 25.2703C19.0846 26.6438 22.0551 27.7863 26.3921 28.2263C27.8696 28.3762 31.4788 28.3549 32.9918 28.1873C36.2869 27.8225 38.7906 27.0256 39.8005 26.0201C40.2804 25.5423 40.395 25.2427 40.2973 24.7211C40.2149 24.2809 39.5104 23.6267 38.6933 23.2316C37.376 22.5946 35.2963 22.0794 33.0699 21.8385C31.7161 21.6919 28.4699 21.6271 27.2025 21.7213ZM0.34467 24.0704C0.34467 26.3605 0.338343 26.3296 0.918494 26.8654C2.79859 28.6013 9.48587 29.588 15.5943 29.0308L16.1996 28.9756L16.2001 26.7761C16.2003 25.4588 16.2339 24.4561 16.2838 24.276C16.3297 24.1106 16.355 23.9629 16.3399 23.9479C16.3249 23.9329 15.9797 23.9538 15.5728 23.9944C15.1658 24.0349 14.0069 24.0905 12.9974 24.118C8.17522 24.2492 3.14662 23.4627 0.650209 22.1869L0.34467 22.0308V24.0704ZM18.6213 29.7991C18.6215 30.3693 18.66 30.9766 18.7069 31.1487C18.8234 31.577 19.4798 32.2023 20.1873 32.5592C24.9155 34.9444 36.339 34.6474 39.614 32.0542C40.2609 31.5419 40.3335 31.3286 40.3335 29.9391C40.3335 29.2919 40.3148 28.7624 40.2919 28.7624C40.2689 28.7624 40.0693 28.8543 39.8481 28.9666C38.3749 29.7144 36.2523 30.2601 33.4631 30.6082C32.1274 30.7749 28.4323 30.841 26.8997 30.7255C23.8039 30.4923 20.9546 29.859 19.3423 29.0457C19.0336 28.8899 18.7449 28.7624 18.7009 28.7624C18.6502 28.7624 18.621 29.1431 18.6213 29.7991ZM0.34467 31.5813C0.34467 33.8713 0.338343 33.8405 0.918494 34.3762C2.79859 36.1122 9.48587 37.0988 15.5943 36.5416L16.1996 36.4864V33.9509V31.4154L15.9458 31.4575C15.3984 31.5483 13.2319 31.6572 11.9953 31.6561C7.51642 31.6518 2.92973 30.8627 0.66872 29.7072L0.34467 29.5416V31.5813ZM39.8649 34.8023C35.1152 37.2014 24.4611 37.271 19.4154 34.9358C19.0523 34.7677 18.7212 34.6303 18.6796 34.6303C18.6331 34.6303 18.6149 35.0879 18.6322 35.8234C18.6578 36.9093 18.6767 37.0429 18.8422 37.3099C19.533 38.4242 21.9384 39.3256 25.5172 39.8115C27.241 40.0455 31.4714 40.0659 33.2261 39.8487C36.9719 39.3851 39.6082 38.3902 40.2174 37.2102C40.3133 37.0244 40.3331 36.7364 40.3159 35.7814L40.2944 34.5854L39.8649 34.8023Z" fill="#A3FF47"/>
</svg>
