<svg width="39" height="56" viewBox="0 0 39 56" fill="none" xmlns="http://www.w3.org/2000/svg">
<path fill-rule="evenodd" clip-rule="evenodd" d="M19.4939 19.8513C19.4939 37.1089 19.4338 39.1791 18.9375 38.9856C12.6698 36.5416 5.72154 37.5849 2.16668 41.5039C-2.06909 46.1734 0.095306 52.1185 7.00482 54.7927C9.60834 55.8003 14.9522 55.7186 17.7125 54.6291C20.1715 53.6587 22.5322 51.6712 23.4882 49.7665C24.1644 48.4202 24.1999 47.5274 24.1999 31.9237V15.4982L25.9194 15.7506C27.9517 16.0489 30.9299 17.375 32.0695 18.4888C33.3991 19.7888 34.0774 21.507 34.0774 23.5739C34.0774 24.6407 34.2165 25.5136 34.3866 25.5136C34.5568 25.5136 35.3734 24.893 36.2013 24.1342C38.9551 21.6115 39.7743 18.2777 38.2217 15.9121C37.6207 14.9961 36.2574 14.0574 33.1192 12.3984C30.764 11.1532 28.3491 9.66344 27.7533 9.08776C26.0971 7.48799 24.9423 5.22941 24.5123 2.74755L24.1224 0.5H19.4939V19.8513Z" fill="#A3FF47"/>
</svg>
