<svg width="18" height="18" viewBox="0 0 18 18" fill="none" xmlns="http://www.w3.org/2000/svg">
<path d="M15.75 2.99999H13.425C13.0662 1.25518 11.5313 0.00225 9.74998 0H8.24996C6.46863 0.00225 4.93378 1.25518 4.57498 2.99999H2.24999C1.83578 2.99999 1.5 3.33577 1.5 3.74998C1.5 4.16419 1.83578 4.5 2.24999 4.5H2.99998V14.25C3.00247 16.32 4.67995 17.9975 6.74999 18H11.25C13.32 17.9975 14.9975 16.32 15 14.25V4.5H15.75C16.1642 4.5 16.5 4.16422 16.5 3.75001C16.5 3.3358 16.1642 2.99999 15.75 2.99999ZM8.25 12.75C8.25 13.1642 7.91422 13.5 7.50001 13.5C7.08577 13.5 6.74999 13.1642 6.74999 12.75V8.25001C6.74999 7.8358 7.08576 7.50002 7.49998 7.50002C7.91419 7.50002 8.24996 7.8358 8.24996 8.25001V12.75H8.25ZM11.25 12.75C11.25 13.1642 10.9142 13.5 10.5 13.5C10.0858 13.5 9.75001 13.1642 9.75001 12.75V8.25001C9.75001 7.8358 10.0858 7.50002 10.5 7.50002C10.9142 7.50002 11.25 7.8358 11.25 8.25001V12.75ZM6.12825 2.99999C6.44726 2.10171 7.29677 1.50114 8.25 1.49998H9.75001C10.7032 1.50114 11.5528 2.10171 11.8718 2.99999H6.12825Z" fill="#FE2C2C"/>
</svg>
