<svg width="34" height="34" viewBox="0 0 34 34" fill="none" xmlns="http://www.w3.org/2000/svg">
<path fill-rule="evenodd" clip-rule="evenodd" d="M6.54871 0.228799C1.27113 1.38835 -1.48945 6.85585 0.824798 11.5659C1.50377 12.9478 3.19943 14.6145 4.59392 15.2706C8.72074 17.2126 13.65 15.6276 15.6861 11.7037C16.4298 10.2709 16.6355 9.28273 16.5434 7.58607C16.3206 3.47767 13.0367 0.315152 8.7607 0.0913485C7.93729 0.0482434 7.14718 0.0973429 6.54871 0.228799ZM18.0967 8.03896L18.1349 16.0781L20.0218 16.118L21.9086 16.158V14.2374V12.3166L24.9054 12.2705C27.7836 12.2261 27.935 12.2094 28.7339 11.8482C31.9821 10.3792 33.2696 6.49874 31.5998 3.20962C30.962 1.95315 29.8244 0.8965 28.6047 0.427482C27.7901 0.11447 27.5489 0.0984848 22.9064 0.0502413L18.0584 0L18.0967 8.03896ZM10.43 4.50377C13.4681 6.22112 13.1906 10.5191 9.95216 11.9007C9.511 12.0888 8.97025 12.178 8.27071 12.178C6.43417 12.178 4.95665 11.1679 4.28404 9.45229C3.54394 7.56452 4.47479 5.3192 6.39436 4.36175C7.48474 3.81794 9.33164 3.88303 10.43 4.50377ZM27.5375 4.23129C28.3405 4.92269 28.5501 6.5701 27.9633 7.57722C27.458 8.44403 26.933 8.58462 24.1995 8.58462H21.9086V6.22055V3.85648L24.5573 3.90115C26.9592 3.94169 27.2368 3.97238 27.5375 4.23129ZM31.528 12.9681C30.2383 13.6041 30.2985 15.3293 31.6318 15.9395C32.6351 16.3986 33.8531 15.7212 33.9876 14.629C34.1474 13.3316 32.7307 12.3749 31.528 12.9681ZM6.09039 18.2306C4.06279 18.7564 1.81529 20.5225 0.922619 22.2913C-1.33791 26.7704 0.706407 31.7472 5.55585 33.5706C6.32673 33.8605 6.69744 33.904 8.36764 33.9012C9.97139 33.8983 10.4373 33.8461 11.1676 33.5869C12.4438 33.134 13.1592 32.6891 14.0152 31.8161C15.3987 30.4052 16.0232 28.7711 16.0477 26.4975L16.0631 25.0702L12.3212 25.0321L8.57926 24.994L8.62144 26.4594L8.66362 27.9248L10.2545 27.9654C12.1455 28.0135 12.2162 28.1074 11.1421 29.1433C10.3307 29.9261 9.57256 30.1937 8.20648 30.18C5.84428 30.1562 3.96113 28.3076 3.94588 25.9979C3.9222 22.4087 8.26923 20.5627 11.2839 22.8817L11.6845 23.1898L13.2422 22.2031C14.0989 21.6605 14.8012 21.1415 14.8025 21.05C14.8069 20.7734 13.0752 19.3529 12.1604 18.8826C11.689 18.6402 10.9119 18.3436 10.4333 18.2235C9.3488 17.951 7.15428 17.9546 6.09039 18.2306ZM22.9925 18.415C15.9278 20.7868 15.3847 30.1216 22.1306 33.2246C25.8932 34.9554 30.6488 33.6826 32.4561 30.4615C33.0621 29.3813 33.4517 27.7371 33.4517 26.2606V24.9988H29.6728H25.8939L25.9361 26.4618L25.9783 27.9248L27.638 27.9962L29.2978 28.0676L28.9683 28.6335C28.3054 29.7711 26.472 30.4392 24.8693 30.127C23.338 29.8287 22.3403 29.0587 21.6794 27.6649C21.342 26.9535 21.2936 26.6868 21.3423 25.8094C21.4681 23.5391 23.0212 22.0401 25.4031 21.89C26.649 21.8115 27.3311 21.9927 28.3094 22.6621C28.6963 22.9268 29.0482 23.1433 29.0914 23.1433C29.1346 23.1433 29.8748 22.6871 30.7363 22.1296L32.3028 21.1161L31.4418 20.2768C29.8885 18.7629 27.9409 18.0037 25.6184 18.0068C24.4475 18.0084 23.993 18.079 22.9925 18.415Z" fill="#4C8CFF"/>
</svg>
