<svg width="37" height="31" viewBox="0 0 37 31" fill="none" xmlns="http://www.w3.org/2000/svg">
<path d="M36.574 0.549443C37.3349 1.29362 37.3682 1.07979 34.1797 15.9955C32.5284 23.7206 31.1797 29.7326 31.0349 30.0148C30.8955 30.2866 30.6471 30.6024 30.483 30.7167C30.0459 31.021 29.2006 30.9729 28.5574 30.6072C28.2536 30.4346 26.158 28.9387 23.9006 27.2829L19.796 24.2724L19.0488 24.9785C18.6377 25.3669 17.5805 26.378 16.6993 27.2255C15.6003 28.2823 14.9371 28.8177 14.5877 28.93C14.3076 29.02 14.055 29.0706 14.0265 29.0422C13.998 29.0139 14.1094 27.0678 14.2741 24.7174C14.5042 21.4335 14.6185 20.4021 14.7685 20.262C14.8758 20.1617 18.4468 16.9575 22.7039 13.1416C26.961 9.32561 30.4882 6.13956 30.5421 6.06143C30.8106 5.67183 30.1077 5.43915 29.5499 5.73298C29.3812 5.82199 24.8601 8.63754 19.5032 11.9899L9.76327 18.0852L5.35721 16.7304C2.93384 15.9854 0.816886 15.2918 0.65274 15.1891C0.488593 15.0863 0.259455 14.8586 0.143619 14.6827C-0.046818 14.3939 -0.0472176 14.3249 0.138548 13.9678C0.251582 13.7504 0.540773 13.4518 0.781121 13.3041C1.16266 13.0699 7.18857 10.7327 23.2377 4.59442C25.5865 3.6961 29.0095 2.38085 30.8445 1.67169C32.6795 0.962524 34.421 0.302045 34.7146 0.204015C35.4366 -0.0372807 36.1 0.0859542 36.574 0.549443Z" fill="#2787F5"/>
</svg>
