<svg width="32" height="32" viewBox="0 0 32 32" fill="none" xmlns="http://www.w3.org/2000/svg">
<path fill-rule="evenodd" clip-rule="evenodd" d="M2.13969 0.171875C2.10183 0.266438 1.60493 1.53669 1.03544 2.99475L0 5.64575L0.01639 16.7447L0.0328451 27.8438L4.01654 27.8599L8.00024 27.8759V29.938V32H10.1957H12.3912L14.5368 29.9375L16.6824 27.875H19.9661H23.2498L27.625 23.6725L32 19.47V9.735V0H17.1042H2.20843L2.13969 0.171875ZM29.0732 10.4216V18.0307L26.5207 20.4841L23.9681 22.9375H19.9683H15.9684L13.838 24.984L11.7075 27.0306V24.984V22.9375H8.423H5.13848V12.875V2.8125H17.1058H29.0732V10.4216ZM13.0734 12.5V16.6875H14.5368H16.0002V12.5V8.3125H14.5368H13.0734V12.5ZM21.0733 12.5V16.6875H22.5367H24.0001V12.5V8.3125H22.5367H21.0733V12.5Z" fill="#673AB7"/>
</svg>
