<svg width="38" height="28" viewBox="0 0 38 28" fill="none" xmlns="http://www.w3.org/2000/svg">
<path fill-rule="evenodd" clip-rule="evenodd" d="M32.3569 0.896306C34.2441 1.2856 36.3588 2.84586 37.1844 4.45844C38.0016 6.05446 38 6.03539 38 14.204C38 20.7127 37.9692 21.8283 37.7714 22.4874C37.0157 25.0069 34.8763 26.9919 32.3569 27.5117C31.8407 27.6181 27.6419 27.6666 18.9519 27.6666C5.17055 27.6666 5.55268 27.6868 3.82836 26.8663C2.86092 26.4058 1.29909 24.8937 0.815582 23.9495C-0.00155991 22.3535 2.25669e-08 22.3726 2.25669e-08 14.204C2.25669e-08 6.03539 -0.00155991 6.05446 0.815582 4.45844C1.29866 3.51507 2.86078 2.00235 3.82836 1.54111C5.51184 0.738401 5.08917 0.760558 18.8867 0.750601C27.6588 0.74415 31.8386 0.789446 32.3569 0.896306ZM14.1421 19.8901C13.9103 19.9781 13.8955 19.637 13.8955 14.204C13.8955 8.77097 13.9103 8.42991 14.1421 8.51784C14.5828 8.68514 23.9627 14.1161 23.9627 14.204C23.9627 14.2919 14.5828 19.7228 14.1421 19.8901Z" fill="white"/>
<path d="M13.8955 14.204C13.8955 19.637 13.9103 19.9781 14.1421 19.8901C14.5828 19.7228 23.9627 14.2919 23.9627 14.204C23.9627 14.1161 14.5828 8.68514 14.1421 8.51784C13.9103 8.42991 13.8955 8.77097 13.8955 14.204Z" fill="white"/>
<path fill-rule="evenodd" clip-rule="evenodd" d="M32.3569 0.896306C34.2441 1.2856 36.3588 2.84586 37.1844 4.45844C38.0016 6.05446 38 6.03539 38 14.204C38 20.7127 37.9692 21.8283 37.7714 22.4874C37.0157 25.0069 34.8763 26.9919 32.3569 27.5117C31.8407 27.6181 27.6419 27.6666 18.9519 27.6666C5.17055 27.6666 5.55268 27.6868 3.82836 26.8663C2.86092 26.4058 1.29909 24.8937 0.815582 23.9495C-0.00155991 22.3535 2.25669e-08 22.3726 2.25669e-08 14.204C2.25669e-08 6.03539 -0.00155991 6.05446 0.815582 4.45844C1.29866 3.51507 2.86078 2.00235 3.82836 1.54111C5.51184 0.738401 5.08917 0.760558 18.8867 0.750601C27.6588 0.74415 31.8386 0.789446 32.3569 0.896306ZM14.1421 19.8901C13.9103 19.9781 13.8955 19.637 13.8955 14.204C13.8955 8.77097 13.9103 8.42991 14.1421 8.51784C14.5828 8.68514 23.9627 14.1161 23.9627 14.204C23.9627 14.2919 14.5828 19.7228 14.1421 19.8901Z" fill="#FF0000"/>
</svg>
