<svg width="37" height="23" viewBox="0 0 37 23" fill="none" xmlns="http://www.w3.org/2000/svg">
<path d="M5.98639 0.818917C6.53709 0.969359 6.8596 1.38927 7.26012 2.47752C8.69641 6.38079 10.7814 10.1721 12.4646 11.9414C13.1836 12.6972 13.5809 12.9265 14.0744 12.8705C14.6489 12.8054 14.6652 12.6733 14.6337 8.34797L14.6048 4.39459L14.3159 3.78844C14.1569 3.45507 13.8312 2.92618 13.5922 2.61311C13.1233 1.99905 13.0509 1.77713 13.1718 1.32463C13.3269 0.743268 13.5591 0.708328 17.265 0.708328C21.1418 0.708328 21.3031 0.735468 21.4967 1.42101C21.5696 1.67915 21.6125 3.43948 21.6128 6.18964C21.6134 9.80581 21.6405 10.6005 21.7724 10.8512C22.0629 11.4036 22.4464 11.3751 23.3221 10.7361C24.8744 9.60333 27.1705 6.14615 29.0373 2.13069C29.6679 0.774467 29.6807 0.769552 32.697 0.728522C35.4392 0.691232 35.9053 0.764316 36.1516 1.26971C36.2725 1.5176 36.2685 1.66644 36.1262 2.21222C35.788 3.51064 34.0415 6.5198 31.4325 10.3001C30.7375 11.307 30.3064 12.0351 30.3064 12.202C30.3064 12.6847 30.6282 13.107 32.246 14.7474C34.5104 17.0434 36.012 18.8759 36.6329 20.1013C37.0054 20.8362 37.0737 21.183 36.9305 21.6098C36.7156 22.25 36.5093 22.2917 33.5516 22.2917C31.0888 22.2917 30.8874 22.2769 30.4414 22.0646C30.1095 21.9067 29.4899 21.3292 28.4066 20.1681C25.5714 17.1296 23.8924 15.8808 22.6426 15.8808C22.1468 15.8808 22.0316 15.9212 21.8387 16.1623C21.6263 16.4278 21.6135 16.5782 21.6132 18.8068C21.6131 21.6386 21.5662 21.8059 20.6898 22.1C19.9751 22.3398 17.8398 22.3535 16.6201 22.1259C13.9265 21.6235 11.2964 20.2046 8.93732 17.9814C5.67605 14.9078 1.62721 8.11494 0.312619 3.51128C-0.191137 1.74711 -0.0968188 1.04575 0.67381 0.826609C1.15312 0.690377 5.49252 0.684074 5.98639 0.818917Z" fill="#2787F5"/>
</svg>
